<?xml version="1.0" encoding="utf-8"?>
<!-- Generator: Adobe Illustrator 25.0.0, SVG Export Plug-In . SVG Version: 6.00 Build 0)  -->
<svg version="1.1" id="Layer_1" xmlns="http://www.w3.org/2000/svg" xmlns:xlink="http://www.w3.org/1999/xlink" x="0px" y="0px"
	 viewBox="0 0 441.82 102.38" style="enable-background:new 0 0 441.82 102.38;" xml:space="preserve">
<style type="text/css">
	.st0{clip-path:url(#SVGID_2_);}
	.st1{clip-path:url(#SVGID_4_);}
	.st2{font-family:'Tinos';}
	.st3{font-size:80.3118px;}
	.st4{letter-spacing:-4;}
	.st5{fill:#ED2024;}
	.st6{font-family:'Tinos';}
	.st7{font-size:75.6456px;}
	.st8{clip-path:url(#SVGID_2_);fill:#ED1C24;}
	.st9{font-family:'Tinos';}
	.st10{font-size:17.3536px;}
	.st11{clip-path:url(#SVGID_6_);fill:#ED2024;}
	.st12{clip-path:url(#SVGID_6_);fill:#FFFFFF;}
	.st13{clip-path:url(#SVGID_6_);}
	.st14{clip-path:url(#SVGID_8_);}
	.st15{clip-path:url(#SVGID_8_);fill:#ED2024;}
</style>
<g>
	<g>
		<defs>
			<rect id="SVGID_1_" x="0" width="441.82" height="102.38"/>
		</defs>
		<clipPath id="SVGID_2_">
			<use xlink:href="#SVGID_1_"  style="overflow:visible;"/>
		</clipPath>
		<g class="st0">
			<defs>
				<rect id="SVGID_3_" x="0" width="441.82" height="102.38"/>
			</defs>
			<clipPath id="SVGID_4_">
				<use xlink:href="#SVGID_3_"  style="overflow:visible;"/>
			</clipPath>
			<g class="st1">
				<text transform="matrix(1 0 0 1.0794 63.5846 73.2969)"><tspan x="0" y="0" class="st2 st3 st4">Or</tspan><tspan x="85.71" y="0" class="st2 st3 st4">d</tspan><tspan x="130.27" y="0" class="st2 st3 st4">e</tspan><tspan x="164.16" y="0" class="st2 st3">r</tspan></text>
			</g>
			<g class="st1">
				<text transform="matrix(1 0 0 1.1393 256.9557 73.2969)" class="st5 st6 st7">DME</text>
			</g>
		</g>
		<polygon class="st8" points="8.02,17.49 6.86,26.44 34.04,26.44 39.26,23.28 48.85,17.49 		"/>
		<polygon class="st8" points="48.95,17.49 47.79,26.44 64.27,26.44 65.43,17.49 		"/>
		<polygon class="st8" points="6.16,31.84 4.99,40.78 45.79,40.78 37.74,35.01 33.31,31.84 		"/>
		<polygon class="st8" points="47.09,31.84 45.93,40.78 62.41,40.78 63.57,31.84 		"/>
		<polygon class="st8" points="21.17,46.32 29.29,52.14 33.65,55.27 60.53,55.27 61.69,46.32 		"/>
		<polygon class="st8" points="4.27,46.32 3.11,55.27 19.94,55.27 21.1,46.32 		"/>
		<polygon class="st8" points="33.06,60.66 27.76,63.86 18.25,69.61 58.66,69.61 59.83,60.66 		"/>
		<polygon class="st8" points="2.41,60.66 1.25,69.61 18.07,69.61 19.24,60.66 		"/>
		<polygon class="st8" points="21.1,46.32 21.17,46.32 21.1,46.27 		"/>
		<polygon class="st8" points="18.07,69.61 18.06,69.72 18.25,69.61 		"/>
		<polygon class="st8" points="48.85,17.49 48.95,17.49 48.96,17.42 		"/>
		<polygon class="st8" points="45.79,40.78 45.92,40.87 45.93,40.78 		"/>
	</g>
</g>
<text transform="matrix(0.933 0 0 1 220.9113 95.0095)" class="st9 st10">Powered by</text>
<g>
	<g>
		<defs>
			<rect id="SVGID_5_" x="300.08" y="81.58" width="124.55" height="15.44"/>
		</defs>
		<clipPath id="SVGID_6_">
			<use xlink:href="#SVGID_5_"  style="overflow:visible;"/>
		</clipPath>
		<polygon class="st11" points="301.89,81.6 301.58,84.25 308.84,84.25 310.24,83.31 312.8,81.6 		"/>
		<polygon class="st11" points="312.83,81.6 312.52,84.25 316.92,84.25 317.23,81.6 		"/>
		<polygon class="st11" points="308.65,85.84 301.39,85.84 301.08,88.48 311.98,88.48 309.83,86.78 		"/>
		<polygon class="st11" points="316.42,88.48 316.73,85.84 312.33,85.84 312.02,88.48 		"/>
		<polygon class="st11" points="307.57,91.83 308.74,92.75 315.92,92.75 316.23,90.11 305.4,90.11 		"/>
		<polygon class="st11" points="300.89,90.11 300.58,92.75 305.07,92.75 305.38,90.11 		"/>
		<polygon class="st11" points="308.58,94.35 307.17,95.29 304.62,96.99 315.42,96.99 315.73,94.35 		"/>
		<polygon class="st11" points="300.39,94.35 300.08,96.99 304.58,96.99 304.89,94.35 		"/>
		<polygon class="st12" points="305.38,90.11 305.4,90.11 305.39,90.1 		"/>
		<polygon class="st12" points="304.58,96.99 304.57,97.02 304.62,96.99 		"/>
		<polygon class="st12" points="312.8,81.6 312.83,81.6 312.83,81.58 		"/>
		<polygon class="st12" points="311.98,88.48 312.02,88.51 312.02,88.48 		"/>
		<g class="st13">
			<defs>
				<rect id="SVGID_7_" x="300.08" y="81.58" width="124.55" height="15.44"/>
			</defs>
			<clipPath id="SVGID_8_">
				<use xlink:href="#SVGID_7_"  style="overflow:visible;"/>
			</clipPath>
			<path class="st14" d="M330.08,92.94v-7.31c0-2.15-0.23-2.67-1.62-2.67v-0.64h4.05v0.64c-1.38,0-1.62,0.53-1.62,2.67v10.96h-0.59
				l-7.55-11.87v8.56c0,2.16,0.23,2.67,1.64,2.67h-0.02v0.64h-4.06v-0.64c1.4,0,1.64-0.51,1.64-2.67v-7.64
				c0-2.15-0.24-2.67-1.64-2.67v-0.64h3.03L330.08,92.94z"/>
			<path class="st14" d="M337.29,94.66c-0.44,0.55-1.24,1.11-1.88,1.11c-0.7,0-1.27-0.58-1.27-1.5c0-1.62,1.92-2.55,3.16-2.79V94.66
				z M337.29,90.84c-1.78,0.39-4.81,1.05-4.81,3.65c0,1.38,0.84,2.32,2.06,2.32c1.05,0,1.99-0.64,2.79-1.37
				c0.07,0.74,0.47,1.37,1.19,1.37c0.82,0,1.34-0.64,1.78-1.37l-0.23-0.41c-0.21,0.25-0.42,0.49-0.72,0.49
				c-0.52,0-0.52-0.86-0.52-1.33v-4.44c0-0.82,0-1.64-0.63-2.22c-0.59-0.54-1.48-0.68-2.22-0.68c-1.13,0-3.17,0.62-3.17,2.24
				c0,0.53,0.33,0.86,0.82,0.86c0.63,0,0.85-0.37,1.01-0.98c0.19-0.84,0.56-1.48,1.43-1.48c1.05,0,1.22,1.11,1.22,2.07V90.84z"/>
			<path class="st14" d="M340.31,87.7v-0.47c1.29-0.6,2.07-2.11,2.23-3.59h0.58v3.41h2.44v0.64h-2.44v5.91
				c0,0.88-0.09,2.16,0.99,2.16c0.68,0,1.1-0.49,1.54-0.97l0.3,0.39c-0.66,0.84-1.54,1.62-2.6,1.62c-1.54,0-1.76-1.4-1.76-2.79V87.7
				H340.31z"/>
			<path class="st14" d="M349.23,93.92c0,1.83,0,1.95,1.19,2.11v0.56h-3.91V96c1.19-0.16,1.19-0.29,1.19-2.1v-4.17
				c-0.05-1.03-0.07-1.4-1.13-1.4v-0.47l2.67-1.15V93.92z M348.23,84.7c-0.64,0-1.17-0.57-1.17-1.29c0-0.72,0.51-1.31,1.15-1.31
				c0.64,0,1.17,0.58,1.17,1.31C349.38,84.11,348.86,84.7,348.23,84.7"/>
			<path class="st14" d="M354.92,96.16c-1.69,0-2.09-3.22-2.09-4.6c0-1.5,0.44-4.08,2.2-4.08c1.71,0,2.11,2.69,2.11,4.11
				C357.13,93.1,356.73,96.16,354.92,96.16 M354.92,96.8c2.32,0,3.98-2.34,3.98-4.84c0-2.48-1.45-5.13-3.87-5.13
				c-2.46,0-3.96,2.61-3.96,5.15C351.06,94.39,352.68,96.8,354.92,96.8"/>
			<path class="st14" d="M362.42,93.92c0,1.83,0,1.95,1.17,2.1v0.57h-3.89v-0.57c1.19-0.15,1.19-0.27,1.19-2.1v-4.19
				c-0.05-1.03-0.07-1.4-1.13-1.4v-0.47l2.67-1.15v1.66c0.66-0.8,1.76-1.52,2.74-1.52c0.61,0,1.22,0.27,1.66,0.76
				c0.58,0.72,0.59,1.62,0.59,2.53v3.78c0,1.83,0,1.95,1.17,2.1v0.57h-3.91v-0.57c1.2-0.15,1.2-0.27,1.2-2.1v-3.41
				c0-1.17-0.07-2.63-1.45-2.63c-0.77,0-1.48,0.7-2.01,1.29V93.92z"/>
			<path class="st14" d="M374.37,94.66c-0.44,0.55-1.24,1.11-1.88,1.11c-0.7,0-1.27-0.58-1.27-1.5c0-1.62,1.92-2.55,3.16-2.79V94.66
				z M374.37,90.84c-1.78,0.39-4.81,1.05-4.81,3.65c0,1.38,0.84,2.32,2.06,2.32c1.05,0,1.99-0.64,2.79-1.37
				c0.07,0.74,0.47,1.37,1.19,1.37c0.82,0,1.34-0.64,1.78-1.37l-0.23-0.41c-0.21,0.25-0.42,0.49-0.72,0.49
				c-0.52,0-0.52-0.86-0.52-1.33v-4.44c0-0.82,0-1.64-0.63-2.22c-0.59-0.54-1.48-0.68-2.22-0.68c-1.13,0-3.17,0.62-3.17,2.24
				c0,0.53,0.33,0.86,0.82,0.86c0.63,0,0.85-0.37,1.01-0.98c0.19-0.84,0.56-1.48,1.43-1.48c1.05,0,1.22,1.11,1.22,2.07V90.84z"/>
			<path class="st14" d="M379.19,85.03c0-1.7-0.25-1.62-1.48-1.72v-0.57l3.02-1.11v12.28c0,1.83,0,1.95,1.2,2.1v0.57h-3.91v-0.57
				c1.17-0.15,1.17-0.27,1.17-2.1V85.03z"/>
			<path class="st15" d="M389.81,85.44c-0.02-2.05,0.19-2.48,1.69-2.48c3.56,0,4.67,2.81,4.67,6.35c0,3.49-1.15,6.63-4.67,6.63
				c-1.43,0-1.71-0.57-1.69-2.65V85.44z M391.22,96.59c4.08,0,6.96-2.59,6.96-7.35c0-2.2-0.7-4.21-2.34-5.52
				c-1.64-1.31-3.16-1.4-4.62-1.4h-4.78v0.64c1.39,0,1.64,0.53,1.64,2.67v7.64c0,2.16-0.24,2.67-1.64,2.67v0.64H391.22z"/>
			<path class="st15" d="M411.61,93.27c0,2.16,0.24,2.67,1.66,2.67v0.64h-5.04v-0.64c1.41,0,1.66-0.51,1.66-2.67v-9.44h-0.05
				l-4.33,12.75h-0.66l-4.29-12.83h-0.05v9.51c0,2.16,0.23,2.67,1.62,2.67v0.64h-4.06v-0.64c1.41,0,1.64-0.51,1.64-2.67v-7.64
				c0-2.15-0.23-2.67-1.64-2.67v-0.64h3.77l3.82,11.35l3.84-11.35h3.79v0.64c-1.41,0-1.66,0.53-1.66,2.67V93.27z"/>
			<path class="st15" d="M421.42,91.99h-0.51c0.02-2.5-1.48-2.61-2.86-2.51h-0.71v4.5c0,1.58,0.19,1.97,1.78,1.97
				c2.84,0,3.35-0.8,5.09-3.25l0.42,0.19l-1.29,3.7h-9.35v-0.64c1.38,0,1.62-0.51,1.62-2.67v-7.64c0-2.15-0.24-2.67-1.62-2.67v-0.64
				h9.12l1.22,3.33l-0.44,0.29c-1.54-2.28-2.11-2.98-4.67-2.98c-1.78,0-1.88,0.31-1.88,2.22v3.65h0.71c1.64,0,2.76-0.33,2.88-2.44
				h0.49V91.99z"/>
		</g>
	</g>
</g>
</svg>
