<?xml version="1.0" standalone="no"?><svg xmlns="http://www.w3.org/2000/svg" viewBox="0 0 1440 320"><path fill="#325076" fill-opacity="1" d="M0,128L30,122.7C60,117,120,107,180,112C240,117,300,139,360,149.3C420,160,480,160,540,149.3C600,139,660,117,720,112C780,107,840,117,900,106.7C960,96,1020,64,1080,74.7C1140,85,1200,139,1260,154.7C1320,171,1380,149,1410,138.7L1440,128L1440,320L1410,320C1380,320,1320,320,1260,320C1200,320,1140,320,1080,320C1020,320,960,320,900,320C840,320,780,320,720,320C660,320,600,320,540,320C480,320,420,320,360,320C300,320,240,320,180,320C120,320,60,320,30,320L0,320Z"></path></svg>